<svg width="1094" height="258" viewBox="0 0 1094 258" fill="none" xmlns="http://www.w3.org/2000/svg">
<g clip-path="url(#clip0_1_94)">
<path d="M212.24 8.45C206.5 2.82 198.86 0 189.3 0H0V57.17C13.39 52 28.43 49.09 44.32 49.09C76.72 49.09 105.56 61.15 124.21 79.94C127.77 83.53 127.77 89.26 124.21 92.84C105.56 111.63 76.72 123.7 44.32 123.7C39 123.7 33.78 123.37 28.68 122.74C18.54 121.5 8.91 119.05 0 115.61V224.06C0 233.83 2.86 241.53 8.6 247.17C14.34 252.8 21.98 255.62 31.54 255.62H220.83V198.45C207.43 203.62 192.4 206.53 176.51 206.53C144.11 206.53 115.26 194.47 96.62 175.68C93.06 172.09 93.06 166.36 96.62 162.78C115.26 143.99 144.11 131.92 176.51 131.92C181.83 131.92 187.05 132.25 192.15 132.88C202.28 134.12 211.91 136.57 220.83 140.01V31.55C220.83 21.78 217.97 14.07 212.23 8.44L212.24 8.45ZM86.68 223.11H38.24C31.87 223.11 28.68 220.13 28.68 214.18V148.82H63.66C61.8 154.97 60.86 161.57 60.86 168.62C60.86 178.6 62.13 186.89 64.68 193.48C67.23 200.06 70.47 205.32 74.4 209.25C78.33 213.18 82.42 216.11 86.67 218.01V223.12L86.68 223.11ZM157.18 106.8C159.04 100.65 159.97 94.05 159.97 87C159.97 77.02 158.7 68.73 156.15 62.14C153.6 55.56 150.37 50.3 146.44 46.37C142.51 42.44 138.42 39.51 134.17 37.6V32.5H182.61C188.98 32.5 192.17 35.48 192.17 41.42V106.79H157.19L157.18 106.8Z" fill="#F6F6FE"/>
<path d="M170.66 143.73C156.69 143.73 145.37 155.06 145.37 169.02C145.37 182.98 156.69 194.31 170.66 194.31C184.63 194.31 195.95 182.98 195.95 169.02C195.95 155.06 184.63 143.73 170.66 143.73ZM170.66 185.8C161.4 185.8 153.89 178.29 153.89 169.02C153.89 159.75 161.4 152.24 170.66 152.24C179.92 152.24 187.44 159.76 187.44 169.02C187.44 178.28 179.93 185.8 170.66 185.8Z" fill="#E76021"/>
<path d="M170.66 158.6C164.91 158.6 160.24 163.27 160.24 169.02C160.24 174.77 164.91 179.44 170.66 179.44C176.41 179.44 181.09 174.78 181.09 169.02C181.09 163.26 176.42 158.6 170.66 158.6Z" fill="#E76021"/>
<path d="M50.18 111.89C64.15 111.89 75.47 100.56 75.47 86.6C75.47 72.64 64.15 61.31 50.18 61.31C36.21 61.31 24.89 72.64 24.89 86.6C24.89 100.56 36.21 111.89 50.18 111.89ZM50.18 69.81C59.44 69.81 66.95 77.32 66.95 86.59C66.95 95.86 59.44 103.37 50.18 103.37C40.92 103.37 33.4 95.85 33.4 86.59C33.4 77.33 40.91 69.81 50.18 69.81Z" fill="#E76021"/>
<path d="M50.18 97.01C55.93 97.01 60.6 92.34 60.6 86.59C60.6 80.84 55.93 76.17 50.18 76.17C44.43 76.17 39.75 80.83 39.75 86.59C39.75 92.35 44.42 97.01 50.18 97.01Z" fill="#E76021"/>
<path d="M327.25 97.53V16.72H298.83V0H374.06V16.72H345.64V97.53H327.25Z" fill="#F6F6FE"/>
<path d="M386.6 97.53V0H404.99V40.26H441.21V0H459.6V97.53H441.21V56.99H404.99V97.53H386.6Z" fill="#F6F6FE"/>
<path d="M478 97.53V0H496.39V97.53H478Z" fill="#F6F6FE"/>
<path d="M514.78 97.53V0H557.13C563.26 0 568.6 1.07 573.15 3.2C577.7 5.34 581.23 8.36 583.74 12.26C586.25 16.16 587.5 20.76 587.5 26.05V27.72C587.5 33.57 586.11 38.31 583.32 41.93C580.53 45.55 577.1 48.2 573.01 49.87V52.38C576.72 52.57 579.6 53.84 581.65 56.21C583.69 58.58 584.72 61.71 584.72 65.61V97.52H566.33V68.26C566.33 66.03 565.75 64.22 564.59 62.83C563.43 61.44 561.5 60.74 558.81 60.74H533.17V97.52H514.78V97.53ZM533.17 44.03H555.18C559.54 44.03 562.96 42.85 565.42 40.48C567.88 38.11 569.11 34.98 569.11 31.08V29.69C569.11 25.79 567.9 22.65 565.49 20.28C563.07 17.91 559.64 16.73 555.18 16.73H533.17V44.04V44.03Z" fill="#F6F6FE"/>
<path d="M600.04 97.53V81.37H612.86V16.16H600.04V0H640.17C653.27 0 663.23 3.32 670.05 9.96C676.88 16.6 680.29 26.47 680.29 39.57V57.96C680.29 71.06 676.88 80.93 670.05 87.57C663.22 94.21 653.26 97.53 640.17 97.53H600.04ZM631.25 80.81H640.45C647.88 80.81 653.31 78.86 656.75 74.96C660.19 71.06 661.91 65.58 661.91 58.52V39.02C661.91 31.87 660.19 26.37 656.75 22.51C653.31 18.66 647.88 16.73 640.45 16.73H631.25V80.82V80.81Z" fill="#F6F6FE"/>
<path d="M731.01 97.53V0H793.71V16.72H749.41V39.99H789.81V56.71H749.41V80.81H794.55V97.53H731.02H731.01Z" fill="#F6F6FE"/>
<path d="M833.27 97.53V63.95L800.11 0H820.59L841.21 41.8H843.72L864.34 0H884.82L851.66 63.95V97.53H833.27Z" fill="#F6F6FE"/>
<path d="M895.13 97.53V0H957.83V16.72H913.53V39.99H953.93V56.71H913.53V80.81H958.67V97.53H895.14H895.13Z" fill="#F6F6FE"/>
<path d="M312.48 255.62L299.66 158.09H317.91L327.38 242.8H329.89L342.15 158.09H373.92L386.18 242.8H388.69L398.16 158.09H416.41L403.59 255.62H371.82L359.28 168.96H356.77L344.23 255.62H312.46H312.48Z" fill="#F6F6FE"/>
<path d="M466.85 257.57C454.59 257.57 444.84 254.2 437.59 247.47C430.34 240.74 426.72 231.1 426.72 218.56V195.15C426.72 182.61 430.34 172.98 437.59 166.24C444.83 159.51 454.59 156.14 466.85 156.14C479.11 156.14 488.86 159.51 496.11 166.24C503.36 172.98 506.98 182.61 506.98 195.15V218.56C506.98 231.1 503.36 240.74 496.11 247.47C488.87 254.21 479.11 257.57 466.85 257.57ZM466.85 241.13C473.72 241.13 479.06 239.13 482.87 235.14C486.68 231.15 488.58 225.81 488.58 219.12V194.6C488.58 187.91 486.68 182.57 482.87 178.58C479.06 174.59 473.72 172.59 466.85 172.59C459.98 172.59 454.75 174.59 450.9 178.58C447.04 182.57 445.12 187.91 445.12 194.6V219.12C445.12 225.81 447.05 231.15 450.9 235.14C454.75 239.13 460.07 241.13 466.85 241.13Z" fill="#F6F6FE"/>
<path d="M523.14 255.62V158.09H565.49C571.62 158.09 576.96 159.16 581.51 161.29C586.06 163.43 589.59 166.45 592.1 170.35C594.61 174.25 595.86 178.85 595.86 184.14V185.81C595.86 191.66 594.47 196.4 591.68 200.02C588.89 203.64 585.46 206.29 581.37 207.96V210.47C585.08 210.66 587.96 211.93 590.01 214.3C592.05 216.67 593.08 219.8 593.08 223.7V255.61H574.69V226.35C574.69 224.12 574.11 222.31 572.95 220.92C571.79 219.53 569.86 218.83 567.17 218.83H541.53V255.61H523.14V255.62ZM541.53 202.12H563.54C567.9 202.12 571.32 200.94 573.78 198.57C576.24 196.2 577.47 193.07 577.47 189.17V187.78C577.47 183.88 576.26 180.74 573.85 178.37C571.43 176 568 174.82 563.54 174.82H541.53V202.13V202.12Z" fill="#F6F6FE"/>
<path d="M611.19 255.62V158.09H629.58V238.9H674.16V255.62H611.19Z" fill="#F6F6FE"/>
<path d="M683.92 255.62V239.46H696.74V174.26H683.92V158.1H724.05C737.15 158.1 747.11 161.42 753.93 168.06C760.76 174.7 764.17 184.57 764.17 197.67V216.06C764.17 229.16 760.76 239.03 753.93 245.67C747.1 252.31 737.14 255.63 724.05 255.63H683.92V255.62ZM715.12 238.9H724.32C731.75 238.9 737.18 236.95 740.62 233.05C744.06 229.15 745.78 223.67 745.78 216.61V197.11C745.78 189.96 744.06 184.46 740.62 180.6C737.18 176.75 731.75 174.82 724.32 174.82H715.12V238.91V238.9Z" fill="#F6F6FE"/>
<path d="M786.46 255.62L773.64 158.09H791.89L801.36 242.8H803.87L816.13 158.09H847.9L860.16 242.8H862.67L872.14 158.09H890.39L877.57 255.62H845.8L833.26 168.96H830.75L818.21 255.62H786.44H786.46Z" fill="#F6F6FE"/>
<path d="M903.77 255.62V158.09H922.16V255.62H903.77Z" fill="#F6F6FE"/>
<path d="M937.76 255.62V239.46H950.58V174.26H937.76V158.1H977.89C990.99 158.1 1000.95 161.42 1007.77 168.06C1014.6 174.7 1018.01 184.57 1018.01 197.67V216.06C1018.01 229.16 1014.6 239.03 1007.77 245.67C1000.94 252.31 990.98 255.63 977.89 255.63H937.76V255.62ZM968.97 238.9H978.17C985.6 238.9 991.03 236.95 994.47 233.05C997.91 229.15 999.63 223.67 999.63 216.61V197.11C999.63 189.96 997.91 184.46 994.47 180.6C991.03 176.75 985.6 174.82 978.17 174.82H968.97V238.91V238.9Z" fill="#F6F6FE"/>
<path d="M1033.34 255.62V158.09H1096.04V174.81H1051.74V198.08H1092.14V214.8H1051.74V238.9H1096.88V255.62H1033.35H1033.34Z" fill="#F6F6FE"/>
</g>
<defs>
<clipPath id="clip0_1_94">
<rect width="1093.9" height="257.57" fill="white"/>
</clipPath>
</defs>
</svg>
