<?xml version="1.0" encoding="UTF-8"?>
<svg id="Layer_2" data-name="Layer 2" xmlns="http://www.w3.org/2000/svg" viewBox="0 0 1093.9 257.57">
  <defs>
    
  </defs>
  <g id="Layer_1-2" data-name="Layer 1">
    <g>
      <g>
        <path class="cls-2" d="M170.66,143.73c-13.97,0-25.29,11.33-25.29,25.29s11.32,25.29,25.29,25.29,25.29-11.33,25.29-25.29-11.32-25.29-25.29-25.29ZM170.66,185.8c-9.26,0-16.77-7.51-16.77-16.78s7.51-16.78,16.77-16.78,16.78,7.52,16.78,16.78-7.51,16.78-16.78,16.78Z"></path>
        <path class="cls-2" d="M170.66,158.6c-5.75,0-10.42,4.67-10.42,10.42s4.67,10.42,10.42,10.42,10.43-4.66,10.43-10.42-4.67-10.42-10.43-10.42Z"></path>
        <path class="cls-1" d="M212.24,8.45c-5.74-5.63-13.38-8.45-22.94-8.45H0v57.17c13.39-5.17,28.43-8.08,44.32-8.08,32.4,0,61.24,12.06,79.89,30.85,3.56,3.59,3.56,9.32,0,12.9-18.65,18.79-47.49,30.86-79.89,30.86-5.32,0-10.54-.33-15.64-.96-10.14-1.24-19.77-3.69-28.68-7.13v108.45c0,9.77,2.86,17.47,8.6,23.11,5.74,5.63,13.38,8.45,22.94,8.45h189.29v-57.17c-13.4,5.17-28.43,8.08-44.32,8.08-32.4,0-61.25-12.06-79.89-30.85-3.56-3.59-3.56-9.32,0-12.9,18.64-18.79,47.49-30.86,79.89-30.86,5.32,0,10.54.33,15.64.96,10.13,1.24,19.76,3.69,28.68,7.13V31.55c0-9.77-2.86-17.48-8.6-23.11ZM86.68,223.11h-48.44c-6.37,0-9.56-2.98-9.56-8.93v-65.36h34.98c-1.86,6.15-2.8,12.75-2.8,19.8,0,9.98,1.27,18.27,3.82,24.86,2.55,6.58,5.79,11.84,9.72,15.77,3.93,3.93,8.02,6.86,12.27,8.76v5.11ZM157.18,106.8c1.86-6.15,2.79-12.75,2.79-19.8,0-9.98-1.27-18.27-3.82-24.86-2.55-6.58-5.78-11.84-9.71-15.77-3.93-3.93-8.02-6.86-12.27-8.77v-5.1h48.44c6.37,0,9.56,2.98,9.56,8.92v65.37h-34.98Z"></path>
        <path class="cls-2" d="M50.18,111.89c13.97,0,25.29-11.33,25.29-25.29s-11.32-25.29-25.29-25.29-25.29,11.33-25.29,25.29,11.32,25.29,25.29,25.29ZM50.18,69.81c9.26,0,16.77,7.51,16.77,16.78s-7.51,16.78-16.77,16.78-16.78-7.52-16.78-16.78,7.51-16.78,16.78-16.78Z"></path>
        <path class="cls-2" d="M50.18,97.01c5.75,0,10.42-4.67,10.42-10.42s-4.67-10.42-10.42-10.42-10.43,4.66-10.43,10.42,4.67,10.42,10.43,10.42Z"></path>
      </g>
      <g>
        <path class="cls-1" d="M324.28,97.53V16.72h-28.42V0h75.23v16.72h-28.42v80.81h-18.39Z"></path>
        <path class="cls-1" d="M383.63,97.53V0h18.39v40.26h36.22V0h18.39v97.53h-18.39v-40.54h-36.22v40.54h-18.39Z"></path>
        <path class="cls-1" d="M475.03,97.53V0h18.39v97.53h-18.39Z"></path>
        <path class="cls-1" d="M511.81,97.53V0h42.35c6.13,0,11.47,1.07,16.02,3.2,4.55,2.14,8.08,5.16,10.59,9.06,2.51,3.9,3.76,8.5,3.76,13.79v1.67c0,5.85-1.39,10.59-4.18,14.21-2.79,3.62-6.22,6.27-10.31,7.94v2.51c3.71.19,6.59,1.46,8.64,3.83,2.04,2.37,3.07,5.5,3.07,9.4v31.91h-18.39v-29.26c0-2.23-.58-4.04-1.74-5.43-1.16-1.39-3.09-2.09-5.78-2.09h-25.64v36.78h-18.39ZM530.2,44.03h22.01c4.36,0,7.78-1.18,10.24-3.55,2.46-2.37,3.69-5.5,3.69-9.4v-1.39c0-3.9-1.21-7.04-3.62-9.41-2.42-2.37-5.85-3.55-10.31-3.55h-22.01v27.31Z"></path>
        <path class="cls-1" d="M597.07,97.53v-16.16h12.82V16.16h-12.82V0h40.13c13.1,0,23.06,3.32,29.88,9.96,6.83,6.64,10.24,16.51,10.24,29.61v18.39c0,13.1-3.41,22.97-10.24,29.61-6.83,6.64-16.79,9.96-29.88,9.96h-40.13ZM628.28,80.81h9.2c7.43,0,12.86-1.95,16.3-5.85,3.44-3.9,5.16-9.38,5.16-16.44v-19.5c0-7.15-1.72-12.65-5.16-16.51-3.44-3.85-8.87-5.78-16.3-5.78h-9.2v64.09Z"></path>
        <path class="cls-1" d="M728.04,97.53V0h62.7v16.72h-44.3v23.27h40.4v16.72h-40.4v24.1h45.14v16.72h-63.53Z"></path>
        <path class="cls-1" d="M830.3,97.53v-33.58L797.14,0h20.48l20.62,41.8h2.51L861.37,0h20.48l-33.16,63.95v33.58h-18.39Z"></path>
        <path class="cls-1" d="M892.16,97.53V0h62.7v16.72h-44.3v23.27h40.4v16.72h-40.4v24.1h45.14v16.72h-63.53Z"></path>
        <path class="cls-1" d="M309.51,255.62l-12.82-97.53h18.25l9.47,84.71h2.51l12.26-84.71h31.77l12.26,84.71h2.51l9.47-84.71h18.25l-12.82,97.53h-31.77l-12.54-86.66h-2.51l-12.54,86.66h-31.77Z"></path>
        <path class="cls-1" d="M463.88,257.57c-12.26,0-22.01-3.37-29.26-10.1-7.25-6.73-10.87-16.37-10.87-28.91v-23.41c0-12.54,3.62-22.17,10.87-28.91,7.24-6.73,17-10.1,29.26-10.1s22.01,3.37,29.26,10.1c7.25,6.74,10.87,16.37,10.87,28.91v23.41c0,12.54-3.62,22.18-10.87,28.91-7.24,6.74-17,10.1-29.26,10.1ZM463.88,241.13c6.87,0,12.21-2,16.02-5.99,3.81-3.99,5.71-9.33,5.71-16.02v-24.52c0-6.69-1.9-12.03-5.71-16.02-3.81-3.99-9.15-5.99-16.02-5.99s-12.1,2-15.95,5.99c-3.86,3.99-5.78,9.33-5.78,16.02v24.52c0,6.69,1.93,12.03,5.78,16.02,3.85,3.99,9.17,5.99,15.95,5.99Z"></path>
        <path class="cls-1" d="M520.17,255.62v-97.53h42.35c6.13,0,11.47,1.07,16.02,3.2,4.55,2.14,8.08,5.16,10.59,9.06,2.51,3.9,3.76,8.5,3.76,13.79v1.67c0,5.85-1.39,10.59-4.18,14.21-2.79,3.62-6.22,6.27-10.31,7.94v2.51c3.71.19,6.59,1.46,8.64,3.83,2.04,2.37,3.07,5.5,3.07,9.4v31.91h-18.39v-29.26c0-2.23-.58-4.04-1.74-5.43-1.16-1.39-3.09-2.09-5.78-2.09h-25.64v36.78h-18.39ZM538.56,202.12h22.01c4.36,0,7.78-1.18,10.24-3.55,2.46-2.37,3.69-5.5,3.69-9.4v-1.39c0-3.9-1.21-7.04-3.62-9.41-2.42-2.37-5.85-3.55-10.31-3.55h-22.01v27.31Z"></path>
        <path class="cls-1" d="M608.22,255.62v-97.53h18.39v80.81h44.58v16.72h-62.97Z"></path>
        <path class="cls-1" d="M680.95,255.62v-16.16h12.82v-65.2h-12.82v-16.16h40.13c13.1,0,23.06,3.32,29.88,9.96,6.83,6.64,10.24,16.51,10.24,29.61v18.39c0,13.1-3.41,22.97-10.24,29.61-6.83,6.64-16.79,9.96-29.88,9.96h-40.13ZM712.15,238.9h9.2c7.43,0,12.86-1.95,16.3-5.85,3.44-3.9,5.16-9.38,5.16-16.44v-19.5c0-7.15-1.72-12.65-5.16-16.51-3.44-3.85-8.87-5.78-16.3-5.78h-9.2v64.09Z"></path>
        <path class="cls-1" d="M783.49,255.62l-12.82-97.53h18.25l9.47,84.71h2.51l12.26-84.71h31.77l12.26,84.71h2.51l9.47-84.71h18.25l-12.82,97.53h-31.77l-12.54-86.66h-2.51l-12.54,86.66h-31.77Z"></path>
        <path class="cls-1" d="M900.8,255.62v-97.53h18.39v97.53h-18.39Z"></path>
        <path class="cls-1" d="M934.79,255.62v-16.16h12.82v-65.2h-12.82v-16.16h40.13c13.1,0,23.06,3.32,29.88,9.96,6.83,6.64,10.24,16.51,10.24,29.61v18.39c0,13.1-3.41,22.97-10.24,29.61-6.83,6.64-16.79,9.96-29.88,9.96h-40.13ZM966,238.9h9.2c7.43,0,12.86-1.95,16.3-5.85,3.44-3.9,5.16-9.38,5.16-16.44v-19.5c0-7.15-1.72-12.65-5.16-16.51-3.44-3.85-8.87-5.78-16.3-5.78h-9.2v64.09Z"></path>
        <path class="cls-1" d="M1030.37,255.62v-97.53h62.7v16.72h-44.3v23.27h40.4v16.72h-40.4v24.1h45.14v16.72h-63.53Z"></path>
      </g>
    </g>
  </g>
</svg>